<svg width="7" height="10" viewBox="0 0 7 10" fill="none" xmlns="http://www.w3.org/2000/svg">
    <path d="M6.70887 1.70533C7.09842 1.31383 7.09684 0.680671 6.70533 0.291126C6.31383 -0.09842 5.68067 -0.0968353 5.29113 0.294665L6.70887 1.70533ZM1.29113 4.31474L0.585791 5.02361L2.00354 6.43428L2.70887 5.72541L1.29113 4.31474ZM5.25118 9.70533C5.64072 10.0968 6.27389 10.0984 6.66539 9.70887C7.05689 9.31933 7.05847 8.68617 6.66893 8.29467L5.25118 9.70533ZM3.23143 4.83991L2.52609 4.13104L1.10834 5.54171L1.81368 6.25058L3.23143 4.83991ZM5.29113 0.294665L1.29113 4.31474L2.70887 5.72541L6.70887 1.70533L5.29113 0.294665ZM6.66893 8.29467L3.23143 4.83991L1.81368 6.25058L5.25118 9.70533L6.66893 8.29467Z"
          fill="#6D7278"/>
</svg>
